M48
; DRILL file {KiCad (6.0.7-1)-1} date 
; FORMAT={-:-/ absolute / inch / decimal}
; #@! TF.CreationDate,2023-04-07T16:35:06+08:00
; #@! TF.GenerationSoftware,Kicad,Pcbnew,(6.0.7-1)-1
; #@! TF.FileFunction,Plated,1,2,PTH
FMAT,2
INCH
; #@! TA.AperFunction,Plated,PTH,ViaDrill
T1C0.0118
; #@! TA.AperFunction,Plated,PTH,ComponentDrill
T2C0.0138
%
G90
G05
T1
X3.9724Y-3.7638
X3.9724Y-3.7992
X3.9724Y-3.8307
X3.9843Y-3.5748
X3.9961Y-3.5433
X4.0079Y-3.8583
X4.0157Y-3.2992
X4.0157Y-3.3346
X4.0236Y-3.0472
X4.0236Y-3.2638
X4.0472Y-3.3858
X4.0472Y-3.752
X4.0669Y-3.1575
X4.0906Y-3.2638
X4.1024Y-3.7362
X4.1063Y-3.8543
X4.1299Y-3.8346
X4.1339Y-3.3622
X4.1378Y-3.6339
X4.1534Y-3.2714
X4.1969Y-3.248
X4.2087Y-3.1457
X4.2126Y-3.7957
X4.2126Y-3.8425
X4.2298Y-3.6348
X4.2323Y-3.748
X4.2441Y-3.8622
X4.2756Y-3.1339
X4.3307Y-3.2402
X4.3307Y-3.874
X4.3307Y-3.9016
X4.3465Y-3.0709
X4.3622Y-3.7008
X4.3622Y-3.7402
X4.3898Y-3.0709
X4.3937Y-3.2717
X4.4173Y-3.0157
X4.4213Y-3.3228
X4.4567Y-3.8425
X4.4606Y-3.0709
X4.4921Y-3.4173
X4.4961Y-3.3622
X4.4961Y-3.5669
X4.4961Y-3.6063
X4.4961Y-3.748
T2
X4.1742Y-3.3986
X4.1742Y-3.4488
X4.1742Y-3.499
X4.2244Y-3.3986
X4.2244Y-3.4488
X4.2244Y-3.499
X4.2746Y-3.3986
X4.2746Y-3.4488
X4.2746Y-3.499
T0
M30
